<?xml version="1.0" encoding="utf-8"?>
<!-- Generator: Adobe Illustrator 27.5.0, SVG Export Plug-In . SVG Version: 6.00 Build 0)  -->
<svg version="1.1" xmlns="http://www.w3.org/2000/svg" xmlns:xlink="http://www.w3.org/1999/xlink" x="0px" y="0px"
	 viewBox="0 0 500 500" style="enable-background:new 0 0 500 500;" xml:space="preserve">
<!-- <g id="BACKGROUND">
	<path style="fill:#EBEBEB;" d="M0-0.005v500h500v-500H0z"/>
</g> -->
<g id="OBJECTS">
	<g>
		<path style="fill:#FFFFFF;" d="M432.796,280.081c-0.064,6.776-0.472,13.488-1.252,20.073c-2.358,19.973-8.136,38.821-18.34,55.003
			c-4.218,6.694-9.188,12.934-14.993,18.603c-3.057,2.984-6.431,5.914-10.095,8.762c-39.238,30.631-111.421,53.552-169.934,53.742
			c-5.143,0.018-10.177-0.136-15.075-0.49c-1.705-0.118-3.401-0.263-5.07-0.426c-1.732-0.163-3.438-0.363-5.125-0.581
			c-2.15-0.281-4.263-0.599-6.34-0.961c-3.655-0.635-7.202-1.397-10.612-2.304c-11.12-2.921-20.871-7.265-28.662-13.225
			c-4.245-3.238-8.436-6.658-12.535-10.277c-9.615-8.463-18.748-17.95-27.002-28.626c-13.923-18.005-25.352-39.356-32.408-64.763
			c-1.887-6.767-3.465-13.841-4.68-21.198c-1.27-7.592-2.168-15.51-2.658-23.764c-0.753-12.762-1.016-24.962-0.662-36.617
			c0.254-8.653,0.853-16.989,1.85-25.025c7.274-58.803,35.565-101.135,105.244-125.924c126.976-45.171,178.469,1.279,213.317,50.15
			c6.086,8.535,11.991,18.649,17.406,29.878c12.762,26.422,22.839,59.003,26.322,91.711
			C432.424,262.603,432.886,271.401,432.796,280.081z"/>
		<g>
			<circle style="fill:#F6F6F6;" cx="265.495" cy="264.647" r="61.307"/>
			
				<ellipse transform="matrix(0.7071 -0.7071 0.7071 0.7071 -184.6768 186.4147)" style="fill:#F6F6F6;" cx="132.684" cy="316.132" rx="38.927" ry="38.927"/>
			<circle style="fill:#F6F6F6;" cx="375.383" cy="205.395" r="32.404"/>
			<g>
				<g>
					<path style="fill:#EBEBEB;" d="M203.106,435.775c-1.705-0.118-3.401-0.263-5.07-0.426c-1.732-0.163-3.438-0.363-5.125-0.581
						c-2.15-0.281-4.263-0.599-6.34-0.961c-3.655-0.635-7.202-1.397-10.612-2.304c-11.12-2.921-20.871-7.265-28.662-13.225
						c-4.245-3.238-8.436-6.658-12.535-10.277c-9.615-8.463-18.748-17.95-27.002-28.626c13.324-4.281,28-4.835,42.477-0.798
						c9.923,2.766,18.803,7.419,26.368,13.478c2.567,2.041,4.971,4.245,7.211,6.594c5.878,6.122,10.64,13.197,14.104,20.889
						c1.388,3.075,2.567,6.24,3.528,9.488C202.108,431.239,202.662,433.498,203.106,435.775z"/>
					<path style="fill:#EBEBEB;" d="M216.109,402.709c-1.442-4.499-4.989-6.866-7.864-8.191c-3.011-1.37-5.941-2.059-8.853-2.603
						c-5.796-1.043-11.492-1.261-17.125-1.188c-2.485,0.036-4.952,0.118-7.42,0.245c-4.245,0.227-8.472,0.581-12.689,1.052
						c0.671,1.034,1.333,2.068,1.995,3.175c0.499,0.853,1.007,1.723,1.451,2.558c5.542-0.263,10.993-0.363,16.454-0.19h0.118
						c5.342,0.2,10.739,0.653,15.71,1.796c2.476,0.572,4.898,1.297,6.857,2.295c1.986,1.025,3.129,2.385,3.356,3.238
						c0.109,0.934-0.299,2.485-1.551,4.29c-1.27,1.778-3.057,3.492-4.916,5.098c-1.714,1.478-3.546,2.866-5.469,4.172
						c-2.367,1.642-4.862,3.166-7.411,4.626c-4.254,2.413-8.635,4.608-13.079,6.685c-0.49,0.218-0.98,0.444-1.469,0.653
						c3.41,0.907,6.957,1.669,10.612,2.304c2.077,0.363,4.19,0.68,6.34,0.961c0.989-0.626,1.977-1.261,2.957-1.905
						c1.878-1.243,3.737-2.503,5.578-3.837c2.821-2.05,5.578-4.263,8.2-6.776c2.132-2.086,4.227-4.318,6.005-7.184
						C215.592,411.272,217.297,407.235,216.109,402.709z"/>
				</g>
			</g>
			<path style="fill:#EBEBEB;" d="M431.544,300.154c-2.358,19.973-8.136,38.821-18.34,55.003
				c-4.218,6.694-9.188,12.934-14.993,18.603c-3.057,2.984-6.431,5.914-10.095,8.762c-12.263-8.445-20.309-22.585-20.309-38.613
				c0-25.887,20.989-46.876,46.876-46.876C420.623,297.034,426.31,298.141,431.544,300.154z"/>
		</g>
		<g>
			<g>
				<path style="fill:#EBEBEB;" d="M302.518,84.672v59.897c-17.963-2.348-37.456-3.632-57.813-3.632
					c-30.437,0-58.923,2.861-83.321,7.86V88.888c24.398-4.987,52.884-7.849,83.321-7.849
					C265.062,81.039,284.555,82.324,302.518,84.672z"/>
				<g>
					<path style="fill:#FFFFFF;" d="M272.532,117.434l-67.023,0.282c-0.822-2.317,1.632-5.032,4.011-5.652
						c2.379-0.62,5.047-0.507,7.057-1.923c4.17-2.939,2.942-10.494,7.404-12.967c2.561-1.42,5.869-0.324,8.1,1.573
						c2.23,1.897,3.758,4.477,5.725,6.646c1.967,2.169,4.703,4.017,7.611,3.671c2.706-0.322,5.05-2.489,7.769-2.315
						c3.304,0.211,5.484,3.724,8.685,4.569c2.043,0.539,4.235-0.084,6.312,0.305C270.26,112.01,273.759,115.714,272.532,117.434z"/>
					<g>
						<g>
							<g>
								<rect x="191.375" y="115.742" style="fill:#FFFFFF;" width="3.18" height="1.974"/>
							</g>
							<g>
								<rect x="196.672" y="115.742" style="fill:#FFFFFF;" width="23.05" height="1.974"/>
							</g>
						</g>
						<g>
							<g>
								<rect x="202.579" y="105.036" style="fill:#FFFFFF;" width="3.18" height="1.974"/>
							</g>
							<g>
								<rect x="207.876" y="105.036" style="fill:#FFFFFF;" width="23.05" height="1.974"/>
							</g>
						</g>
					</g>
				</g>
			</g>
			<g>
				<path style="fill:#EBEBEB;" d="M417.016,185.081v70.104c0-10.481-12.513-19.957-32.683-26.751v-70.093
					C404.502,165.135,417.016,174.6,417.016,185.081z"/>
				<path style="opacity:0.7;fill:#DBDBDB;" d="M417.019,184.533v70.098c0,6.733-5.161,13.046-14.199,18.503v-70.106
					C411.858,197.572,417.019,191.259,417.019,184.533z"/>
			</g>
			<g>
				<path style="fill:#EBEBEB;" d="M334.481,143.037L334.481,143.037L334.481,143.037c-0.616,5.181-4.467,9.392-9.572,10.47l0,0l0,0
					c5.181,0.617,9.392,4.467,10.47,9.572l0,0l0,0c0.617-5.181,4.467-9.392,9.572-10.47l0,0l0,0
					C339.77,151.992,335.558,148.142,334.481,143.037z"/>
				<path style="fill:#EBEBEB;" d="M325.858,134.514L325.858,134.514L325.858,134.514c0.219,2.895-1.431,5.608-4.102,6.744l0,0l0,0
					c2.895-0.219,5.608,1.431,6.744,4.102l0,0l0,0c-0.219-2.895,1.431-5.608,4.103-6.744l0,0l0,0
					C329.707,138.835,326.994,137.185,325.858,134.514z"/>
			</g>
			<path style="fill:#EBEBEB;" d="M244.136,145.65L244.136,145.65L244.136,145.65c0.25,2.892-1.37,5.622-4.03,6.787l0,0l0,0
				c2.892-0.25,5.622,1.371,6.787,4.03l0,0l0,0c-0.251-2.892,1.37-5.623,4.03-6.787l0,0l0,0
				C248.031,149.93,245.301,148.309,244.136,145.65z"/>
			<path style="fill:#EBEBEB;" d="M169.189,274.933L169.189,274.933L169.189,274.933c0.251,2.892-1.37,5.622-4.03,6.787l0,0l0,0
				c2.892-0.25,5.623,1.371,6.788,4.03l0,0l0,0c-0.251-2.892,1.37-5.623,4.03-6.788l0,0l0,0
				C173.084,279.213,170.354,277.592,169.189,274.933z"/>
			<path style="fill:#EBEBEB;" d="M279.972,219.044L279.972,219.044L279.972,219.044c0.25,2.892-1.37,5.622-4.03,6.787l0,0l0,0
				c2.892-0.25,5.623,1.371,6.788,4.03l0,0l0,0c-0.251-2.892,1.37-5.623,4.03-6.787l0,0l0,0
				C283.867,223.324,281.137,221.703,279.972,219.044z"/>
			<path style="fill:#EBEBEB;" d="M358.201,253.83L358.201,253.83L358.201,253.83c0.25,2.892-1.37,5.622-4.03,6.787l0,0l0,0
				c2.892-0.25,5.622,1.371,6.788,4.03l0,0l0,0c-0.251-2.892,1.37-5.623,4.03-6.788l0,0l0,0
				C362.096,258.11,359.366,256.489,358.201,253.83z"/>
			<path style="fill:#EBEBEB;" d="M249.545,403.583L249.545,403.583L249.545,403.583c0.251,2.892-1.37,5.622-4.03,6.787l0,0l0,0
				c2.892-0.25,5.622,1.371,6.787,4.03l0,0l0,0c-0.251-2.892,1.37-5.623,4.03-6.788l0,0l0,0
				C253.44,407.863,250.71,406.242,249.545,403.583z"/>
			<g>
				<g>
					<path style="fill:#DBDBDB;" d="M370.91,111.909c0.347,4.345-2.893,8.148-7.238,8.495c-4.344,0.347-8.148-2.893-8.495-7.238
						c-0.347-4.345,2.893-8.148,7.238-8.495C366.759,104.324,370.563,107.564,370.91,111.909z"/>
					<g>
						<defs>
							<path id="SVGID_1_" d="M365.412,81.512l-20.313,5.955c-3.122,0.915-5.518,3.426-6.286,6.588l-4.933,20.303
								c-0.764,3.143,0.197,6.455,2.525,8.701l15.01,14.487c2.354,2.272,5.745,3.106,8.885,2.186l20.296-5.95
								c3.113-0.912,5.505-3.412,6.28-6.562l5.02-20.405c0.779-3.168-0.196-6.51-2.556-8.762l-15.079-14.39
								C371.906,81.417,368.533,80.597,365.412,81.512z"/>
						</defs>
						<clipPath id="SVGID_00000039819709417218283340000006635433016134036356_">
							<use xlink:href="#SVGID_1_"  style="overflow:visible;"/>
						</clipPath>
						<g style="clip-path:url(#SVGID_00000039819709417218283340000006635433016134036356_);">
							<path style="fill:#CA775D;" d="M340.06,89.033l-7.409,30.487l26.641-7.729c2.251-0.653,3.983-2.458,4.543-4.734l6.627-26.937
								L340.06,89.033z"/>
							<path style="fill:#DBDBDB;" d="M332.652,119.52l22.575,21.788l30.402-8.913l-19.967-19.053
								c-1.691-1.614-4.113-2.206-6.358-1.555L332.652,119.52z"/>
							<path style="fill:#FFFFFF;" d="M370.463,80.12l-6.624,26.924c-0.562,2.283,0.141,4.691,1.842,6.314l19.949,19.036
								l7.532-30.615L370.463,80.12z"/>
						</g>
					</g>
				</g>
				<g>
					<g>
						<path style="fill:#FFFFFF;" d="M344.354,99.274l0.354-0.102c-0.04-1.091,0.875-2.249,2.045-2.584
							c0.164-0.047,0.324-0.073,0.478-0.081c0.713-1.702,2.293-3.186,4.17-3.723c2.616-0.749,4.81,0.625,4.899,3.068
							c1.816-0.52,3.337,0.436,3.399,2.134c0.062,1.695-1.36,3.492-3.176,4.012l-11.946,3.422c-1.816,0.52-3.337-0.434-3.398-2.129
							C341.117,101.593,342.538,99.795,344.354,99.274z"/>
					</g>
					<g>
						<path style="fill:#DBDBDB;" d="M355.631,93.878c-0.896-0.621-2.15-0.818-3.523-0.421c-1.878,0.542-3.46,2.025-4.171,3.723
							c-0.15,0.012-0.316,0.04-0.473,0.086c-1.175,0.334-2.09,1.495-2.048,2.585l-0.356,0.1c-1.811,0.523-3.237,2.32-3.174,4.017
							c0.019,0.474,0.145,0.888,0.369,1.232c-0.633-0.377-1.047-1.042-1.075-1.907c-0.063-1.697,1.362-3.494,3.174-4.017l0.356-0.1
							c-0.041-1.098,0.874-2.251,2.04-2.585c0.166-0.045,0.331-0.074,0.481-0.086c0.711-1.698,2.293-3.182,4.171-3.723
							C353.189,92.268,354.773,92.748,355.631,93.878z"/>
					</g>
				</g>
			</g>
			<g>
				<g>
					<path style="fill:#52799C;" d="M108.922,293.192c-0.347,4.345,2.894,8.148,7.238,8.495s8.148-2.893,8.495-7.238
						c0.347-4.344-2.893-8.148-7.238-8.495C113.072,285.607,109.269,288.848,108.922,293.192z"/>
					<g>
						<defs>
							<path id="SVGID_00000066491180210521598440000001590149267095379853_" d="M114.42,262.796l20.313,5.955
								c3.122,0.915,5.518,3.426,6.286,6.588l4.934,20.303c0.764,3.143-0.197,6.455-2.525,8.701l-15.01,14.487
								c-2.354,2.272-5.746,3.106-8.885,2.186l-20.297-5.95c-3.113-0.913-5.505-3.412-6.28-6.562l-5.02-20.405
								c-0.779-3.168,0.196-6.51,2.556-8.762l15.079-14.389C107.926,262.7,111.298,261.881,114.42,262.796z"/>
						</defs>
						<clipPath id="SVGID_00000160188000665765716950000008509371981514785176_">
							<use xlink:href="#SVGID_00000066491180210521598440000001590149267095379853_"  style="overflow:visible;"/>
						</clipPath>
						<g style="clip-path:url(#SVGID_00000160188000665765716950000008509371981514785176_);">
							<path style="fill:#EBEBEB;" d="M139.771,270.317l7.409,30.487l-26.641-7.729c-2.251-0.653-3.983-2.458-4.543-4.734
								l-6.627-26.937L139.771,270.317z"/>
							<path style="fill:#52799C;" d="M147.179,300.803l-22.575,21.788l-30.402-8.913l19.966-19.053
								c1.691-1.614,4.113-2.206,6.358-1.555L147.179,300.803z"/>
							<path style="fill:#DBDBDB;" d="M109.369,261.404l6.624,26.924c0.562,2.283-0.141,4.691-1.842,6.314l-19.949,19.036
								l-7.532-30.615L109.369,261.404z"/>
						</g>
					</g>
				</g>
				<g>
					<g>
						<g>
							<path style="fill:#CACACA;" d="M135.333,279.389c-0.632-3.405-3.947-6.562-7.421-7.056c-2.289-0.316-4.066,0.592-4.835,2.23
								c0.928-0.977,2.388-1.46,4.144-1.214c3.474,0.483,6.799,3.641,7.421,7.046c0.227,1.184,0.109,2.26-0.316,3.108
								c0.227-0.306,0.365-0.503,0.385-0.533C135.372,282.073,135.589,280.801,135.333,279.389z M129.56,281.274
								c-1.658-0.237-3.237-1.737-3.543-3.355c-0.079-0.414-0.059-0.799,0.039-1.135c-0.602,0.434-0.888,1.204-0.72,2.141
								c0.296,1.618,1.885,3.118,3.533,3.355c1.234,0.178,2.151-0.405,2.418-1.382C130.853,281.235,130.251,281.373,129.56,281.274z
								"/>
						</g>
						<g>
							<path style="fill:#CACACA;" d="M130.853,288.32l-6.099-6.779c-1.007-1.155-1.737-2.516-1.993-3.928
								c-0.217-1.164-0.089-2.201,0.316-3.049c-0.908,0.957-1.313,2.378-0.997,4.056c0.257,1.411,0.977,2.773,1.983,3.928
								l6.108,6.779c0.109-0.148,3.76-5.22,3.858-5.349c0.099-0.138,0.188-0.276,0.266-0.434
								C133.32,284.896,130.941,288.202,130.853,288.32z M127.793,276.409c1.648,0.237,3.227,1.737,3.533,3.355
								c0.079,0.414,0.059,0.799-0.039,1.135c0.592-0.424,0.888-1.194,0.72-2.141c-0.296-1.618-1.885-3.118-3.533-3.355
								c-1.233-0.168-2.151,0.405-2.418,1.382C126.491,276.459,127.093,276.311,127.793,276.409z"/>
						</g>
						<g>
							<defs>
								<path id="SVGID_00000065759431803512051780000018333273408354404748_" d="M127.909,272.339
									c-3.469-0.489-5.775,1.873-5.148,5.273c0.26,1.413,0.985,2.773,1.992,3.929l6.103,6.78c0.108-0.15,3.76-5.219,3.86-5.354
									c0.657-0.894,0.874-2.165,0.612-3.583C134.701,275.985,131.383,272.829,127.909,272.339z M129.556,281.274
									c-1.653-0.233-3.236-1.736-3.535-3.357c-0.299-1.621,0.799-2.746,2.453-2.512c1.653,0.233,3.236,1.736,3.535,3.357
									C132.307,280.383,131.209,281.508,129.556,281.274z"/>
							</defs>
							<use xlink:href="#SVGID_00000065759431803512051780000018333273408354404748_"  style="overflow:visible;fill:#CACACA;"/>
							<clipPath id="SVGID_00000165931812743458163720000017454957248493255061_">
								<use xlink:href="#SVGID_00000065759431803512051780000018333273408354404748_"  style="overflow:visible;"/>
							</clipPath>
						</g>
					</g>
					<g>
						<path style="fill:#FFFFFF;" d="M127.909,272.339c-3.469-0.489-5.775,1.873-5.148,5.273c0.26,1.413,0.985,2.773,1.992,3.929
							l6.103,6.78c0.108-0.15,3.76-5.219,3.86-5.354c0.657-0.894,0.874-2.165,0.612-3.583
							C134.701,275.985,131.383,272.829,127.909,272.339z M129.556,281.274c-1.653-0.233-3.236-1.736-3.535-3.357
							c-0.299-1.621,0.799-2.746,2.453-2.512c1.653,0.233,3.236,1.736,3.535,3.357C132.307,280.383,131.209,281.508,129.556,281.274
							z"/>
					</g>
				</g>
			</g>
			<g>
				<g>
					<g>
						<path style="fill:#EBEBEB;" d="M291.895,425.225l26.875-5.423c-1.008-3.491-2.378-6.188-2.378-6.188l-27.566,2.335
							C290.397,424.023,291.895,425.225,291.895,425.225z"/>
						<path style="fill:#52799C;" d="M316.389,413.621c-0.509,1.553-14.185,7.435-24.361,3.875
							c-1.122-0.394-2.197-0.896-3.205-1.535c-0.283-1.471-0.605-3.421-1.007-5.809c-0.371-2.228-0.798-4.843-1.3-7.809
							c-0.539-3.224-1.168-6.872-1.907-10.908c-1.257-6.91-5.154-14.471-7.106-23.433l15.242-10.438
							c1.182,15.494,2.291,20.917,5.002,27.833c2.859,7.294,11.035,16.618,16.064,23.884
							C315.11,411.155,316.052,412.681,316.389,413.621z"/>
						<path style="fill:#C99077;" d="M297.745,385.391c-4.571,1.155-9.246,3.449-13.139,6.039
							c-1.257-6.91-5.154-14.472-7.106-23.433l15.242-10.438C293.926,373.053,295.034,378.475,297.745,385.391z"/>
						<g>
							<path style="fill:#EBEBEB;" d="M287.82,410.266c-0.382-2.291-0.821-4.981-1.337-8.031
								C288.396,403.768,289.896,407.748,287.82,410.266z"/>
							<path style="fill:#EBEBEB;" d="M316.389,413.621c-1.556,3.638-14.944,9.225-24.361,3.875
								C298.671,409.141,311.747,405.323,316.389,413.621z"/>
							<path style="fill:#EBEBEB;" d="M303.485,382.463c-0.584-0.774-1.601-0.936-2.563-0.571c-2.108,0.8-3.545,3.636-4.275,5.66
								c-0.726,2.013-0.991,4.071-0.78,6.051c-0.835-1.172-1.867-2.164-3.114-2.901c-1.804-1.066-4.117-1.758-6.353-1.421
								c-2.013,0.303-4.327,2.144-3.93,4.459c0.393,2.299,3.15,3.01,5.067,3.358c2.242,0.407,4.936,0.362,7.319-0.477
								c-1.441,0.771-2.81,1.717-4.104,2.765c-0.206,0.167-0.005,0.44,0.205,0.297c1.527-1.042,3.143-1.888,4.793-2.628
								c0.814-0.365,1.639-0.693,2.475-0.967c0.794-0.26,1.709-0.378,2.469-0.758c0.369-0.185,0.369-0.804-0.049-0.81
								c-0.696-0.01-1.469,0.276-2.176,0.534c3.016-2.323,5.23-6.246,5.544-9.868C304.096,384.239,304.027,383.182,303.485,382.463z
								 M289.504,396.298c-1.864-0.091-4.327-0.419-5.587-1.839c-0.633-0.712-0.72-1.723-0.102-2.645
								c0.652-0.974,1.725-1.439,2.762-1.558c1.953-0.225,3.931,0.396,5.523,1.305c1.552,0.886,2.844,2.178,3.804,3.72
								c-0.013,0.002-0.023-0.001-0.037,0.003C293.705,395.871,291.677,396.405,289.504,396.298z M303.043,385.635
								c-0.291,1.845-1.019,3.679-2.069,5.293c-1.061,1.631-2.447,2.984-3.964,4.143c-0.001-0.032,0.005-0.063-0.002-0.097
								c-0.405-1.893-0.311-3.974,0.213-5.962c0.495-1.877,1.464-3.975,2.873-5.398c0.731-0.738,1.975-1.316,2.642-0.45
								C303.225,383.8,303.174,384.807,303.043,385.635z"/>
							<path style="fill:#EBEBEB;" d="M300.937,397.768c-3.406,0.892-6.666,3.066-9.18,5.788c-0.199,0.216,0.102,0.539,0.313,0.332
								c1.275-1.25,2.694-2.35,4.194-3.252c1.52-0.914,3.088-1.544,4.72-2.076c0.154-0.05,0.34-0.181,0.355-0.371
								c0.005-0.073,0.011-0.134-0.012-0.201C301.275,397.836,301.107,397.724,300.937,397.768z"/>
							<path style="fill:#EBEBEB;" d="M303.375,401.458c-3.479,0.521-7.032,2.016-10.173,3.953
								c-0.366,0.226-0.189,0.819,0.201,0.604c1.581-0.871,3.22-1.622,4.879-2.244c1.702-0.638,3.412-1.041,5.146-1.437
								C303.978,402.208,303.923,401.376,303.375,401.458z"/>
							<path style="fill:#EBEBEB;" d="M305.383,404.795c-0.028-0.029-0.057-0.059-0.085-0.088c-0.099-0.102-0.265-0.076-0.395-0.03
								c-0.879,0.311-1.777,0.516-2.655,0.841c-0.876,0.324-1.744,0.692-2.598,1.095c-1.686,0.796-3.294,1.742-4.841,2.848
								c-0.301,0.215-0.051,0.735,0.265,0.535c1.556-0.988,3.172-1.888,4.821-2.646c0.797-0.366,1.604-0.699,2.419-0.999
								c0.896-0.329,1.823-0.701,2.741-0.877c0.145-0.028,0.275-0.139,0.34-0.282c0.016-0.034,0.031-0.069,0.047-0.104
								C305.494,404.973,305.455,404.87,305.383,404.795z"/>
						</g>
					</g>
					<g>
						<path style="fill:#C99077;" d="M330.849,357.946c0.171-4.342-7.139-25.951-7.139-25.951l18.539-9.277l5.289,42.38
							L330.849,357.946z"/>
						<g>
							<polygon style="fill:#EBEBEB;" points="324.369,384.176 323.48,390.638 383.622,390.686 382.359,385.489 							"/>
							<path style="fill:#52799C;" d="M329.606,356.411c-0.693,7.253-4.18,25.211-5.234,27.772c0,0,18.115,1.33,34.639,1.805
								c9.603,0.265,17.796,0.38,22.473-0.369c-5.476-1.781-10.512-4.124-15.856-6.675c-13.755-6.573-18.756-11.23-17.289-22.518
								l-18.724-0.017L329.606,356.411z"/>
							<g>
								<path style="fill:#EBEBEB;" d="M337.361,358.572c0.88,2.063,2.755,3.802,4.527,5.11c0.89,0.656,1.848,1.222,2.849,1.691
									c0.793,0.372,1.689,0.784,2.583,0.962c-0.496,0.208-0.988,0.427-1.473,0.662c-0.783,0.378-1.551,0.79-2.297,1.237
									c-0.399,0.239-1.081,0.769-0.579,1.272c0.414,0.414,0.967,0.025,1.357-0.216c1.478-0.914,3.037-1.704,4.654-2.341
									c0.3-0.118,0.514-0.385,0.425-0.726c-0.01-0.038-0.035-0.072-0.054-0.108c0-0.02,0.007-0.039,0.006-0.059
									c2.114-0.763,4.147-1.771,5.978-3.076c0.891-0.635,1.738-1.339,2.533-2.091c0.743-0.703,1.514-1.56,1.679-2.608
									c0.297-1.887-1.601-3.106-3.312-2.802c-1.05,0.187-1.951,0.852-2.719,1.557c-0.843,0.774-1.629,1.625-2.355,2.509
									c-0.72,0.877-1.381,1.801-1.972,2.77c-0.31,0.508-0.6,1.024-0.847,1.565c-0.068,0.15-0.12,0.305-0.175,0.46
									c-0.888-2.066-1.989-4.03-3.299-5.867c-0.702-0.984-1.441-1.978-2.288-2.843c-0.76-0.776-1.704-1.391-2.819-1.44
									c-1.009-0.045-1.986,0.466-2.436,1.386C336.859,356.534,336.951,357.612,337.361,358.572z M348.754,364.905
									c0.156-0.247,0.315-0.492,0.459-0.745c0.278-0.488,0.55-0.98,0.843-1.46c0.564-0.923,1.187-1.814,1.87-2.653
									c0.592-0.727,1.224-1.419,1.908-2.062c0.687-0.646,1.451-1.289,2.387-1.521c0.723-0.18,1.617-0.036,2.116,0.566
									c0.653,0.787,0.048,1.78-0.529,2.405c-1.249,1.351-2.896,2.438-4.47,3.371C351.885,363.667,350.349,364.362,348.754,364.905
									z M338.361,355.609c0.709-0.849,1.983-0.53,2.769,0.016c0.84,0.584,1.491,1.448,2.118,2.245
									c0.677,0.861,1.306,1.761,1.89,2.688c0.913,1.448,1.706,2.975,2.402,4.541c-0.795-0.266-1.621-0.454-2.395-0.793
									c-0.96-0.42-1.875-0.943-2.732-1.544c-1.568-1.1-3.147-2.608-4.052-4.317C337.904,357.585,337.681,356.423,338.361,355.609z
									"/>
								<path style="fill:#EBEBEB;" d="M345.046,372.345c0.263-0.187,0.552-0.343,0.828-0.511c0.537-0.326,1.074-0.651,1.611-0.977
									c1.091-0.661,2.199-1.295,3.301-1.938c0.518-0.302,0.951,0.481,0.456,0.805c-1.052,0.689-2.098,1.389-3.161,2.061
									c-0.514,0.325-1.028,0.65-1.543,0.974c-0.47,0.297-1.128,0.913-1.714,0.679c-0.138-0.055-0.275-0.174-0.263-0.341
									C344.589,372.73,344.754,372.554,345.046,372.345z"/>
								<path style="fill:#EBEBEB;" d="M346.673,377.363c1.065-0.89,2.156-1.747,3.241-2.612c1.202-0.958,2.425-1.958,3.749-2.744
									c0.314-0.186,0.604,0.237,0.375,0.493c-0.917,1.029-1.993,1.919-3.028,2.826c-1.021,0.895-2.057,1.781-3.111,2.638
									c-0.409,0.332-1.068,1.074-1.658,0.766C345.6,378.395,346.368,377.618,346.673,377.363z"/>
								<path style="fill:#EBEBEB;" d="M352.958,379.569c0.737-0.73,1.474-1.46,2.211-2.19c0.825-0.817,1.662-1.619,2.509-2.414
									c0.356-0.334,0.837,0.165,0.529,0.53c-1.33,1.576-2.703,3.112-4.074,4.653c-0.332,0.373-0.722,0.962-1.303,0.758
									c-0.233-0.082-0.336-0.309-0.336-0.545C352.495,380.017,352.733,379.792,352.958,379.569z"/>
								<path style="fill:#EBEBEB;" d="M359.015,385.99c8.869,1.935,18.728,1.461,23.341-0.5c-5.478-1.775-11.385-3.99-16.728-6.542
									c-2.143,1.351-4.017,3.109-5.461,5.171C359.749,384.716,359.365,385.347,359.015,385.99z"/>
								<path style="fill:#EBEBEB;" d="M335.589,375.33c-1.451,0.63-3.245,0.329-4.448-0.697c-3.084-2.632-1.273-8.101,2.986-7.328
									C337.956,368,339.667,373.558,335.589,375.33z"/>
							</g>
						</g>
					</g>
					<path style="fill:#263238;" d="M242.147,276.183c0,0,62.364,15.629,63.951,17.946c1.596,2.32,18.105,55.715,18.105,55.715
						c17.579,5.916,28.391-3.468,28.391-3.468s-12.516-52.686-17.285-68.533c-0.003-0.022-0.015-0.046-0.027-0.071
						c-0.234-0.796-0.573-1.586-0.979-2.358c-0.944-1.793-2.311-3.514-4.029-5.167c-0.747-0.733-1.574-1.442-2.454-2.148
						c-13.435-10.741-41.264-19.051-63.44-27.928L242.147,276.183z"/>
					<path style="fill:#38474F;" d="M252.251,267.587c16.563,4.223,33.171,8.37,49.448,13.619c3.421,1.103,6.873,2.364,9.385,5.061
						c2.519,2.704,3.752,6.389,5.097,9.758c2.995,7.503,5.796,15.103,8.394,22.752c2.578,7.593,4.744,15.269,6.791,23.008
						c0.315,0.033,0.63,0.076,0.946,0.105c1.752,0.157,3.51,0.219,5.269,0.184c3.583-0.072,7.171-0.581,10.667-1.349
						c0.649-0.142,0.844,0.864,0.197,1.013c-3.49,0.803-7.017,1.264-10.59,1.464c-1.761,0.099-3.524,0.146-5.288,0.126
						c-0.267-0.003-0.533-0.022-0.799-0.028c0.155,0.592,0.316,1.182,0.47,1.775c0.099,0.379-0.492,0.49-0.596,0.116
						c-0.178-0.64-0.372-1.277-0.555-1.915c-0.445-0.016-0.891-0.021-1.335-0.047c-0.868-0.052-1.865,0.076-2.678-0.244
						c-0.764-0.3-0.837-1.629,0.115-1.727c0.903-0.094,1.774,0.242,2.673,0.361c0.256,0.034,0.513,0.055,0.769,0.085
						c-1.882-6.427-3.989-12.802-6.116-19.147c-2.536-7.563-5.189-15.14-8.308-22.486c-1.453-3.424-2.735-7.042-4.617-10.26
						c-2.011-3.437-5.048-5.414-8.729-6.765c-3.741-1.372-7.716-2.149-11.55-3.216c-4.026-1.12-8.054-2.234-12.061-3.421
						c-9.083-2.689-18.22-5.251-27.355-7.759C251.191,268.458,251.556,267.409,252.251,267.587z"/>
					<path style="fill:#263238;" d="M296.078,375.324c-3.646,4.323-20.136,8.46-20.136,8.46s-16.546-48.207-17.475-50.601
						c-0.929-2.394-34.504-44.939-56.956-79.189l34.153-27.035c0,0,38.312,60.22,49.778,88.94
						C288.642,323.914,296.078,375.324,296.078,375.324z"/>
					<path style="fill:#38474F;" d="M320.022,280.342c5.178-0.133,10.327-1.002,15.26-2.569c-0.234-0.796-0.573-1.586-0.979-2.358
						c-0.944-1.793-2.311-3.514-4.029-5.167C327.088,273.836,323.66,277.201,320.022,280.342z"/>
					<path style="fill:#38474F;" d="M265.495,324.214c2.774,2.617,6.943,3.66,10.623,2.658c3.68-1.002,6.744-4.015,7.808-7.678
						C277.841,320.638,271.581,322.77,265.495,324.214z"/>
					<path style="fill:#263238;" d="M244.648,231.57c0,0,13.871,6.144,34.053,14.736l-39.596,40.602
						c-12.497-0.246-37.594-32.913-37.594-32.913L244.648,231.57z"/>
					<path style="fill:#38474F;" d="M246.975,237.471c1.429,0.113,2.868,0.466,4.281,0.711c1.371,0.238,2.743,0.476,4.114,0.714
						c2.798,0.485,5.595,0.971,8.393,1.456c0.903,0.157,0.821,1.591-0.098,1.438c-2.854-0.474-5.707-0.948-8.561-1.422l-4.281-0.711
						c-1.371-0.228-2.794-0.372-4.138-0.725C245.852,238.713,246.135,237.404,246.975,237.471z"/>
					<path style="fill:#38474F;" d="M223.592,252.736c3.638,8.04,3.738,17.714-0.02,25.734
						c10.642,11.21,21.317,22.468,29.993,35.315c4.291,6.355,8.057,13.095,10.983,20.189c2.87,6.96,4.841,14.239,7.031,21.43
						c1.859,6.106,3.881,12.183,6.792,17.844c0.204-0.044,0.409-0.084,0.611-0.133c1.524-0.364,3.038-0.778,4.536-1.236
						c2.95-0.903,5.83-2.02,8.634-3.307c1.23-0.565,2.171,1.313,0.938,1.889c-2.889,1.35-5.862,2.505-8.901,3.469
						c-1.495,0.474-3.005,0.896-4.53,1.263c-0.066,0.016-0.135,0.033-0.201,0.049c0.639,1.134,1.306,2.255,2.033,3.347
						c0.676,1.016-1.027,1.84-1.699,0.843c-0.82-1.217-1.565-2.465-2.275-3.728c-0.865,0.195-1.737,0.361-2.601,0.435
						c-1.345,0.116-1.752-1.734-0.405-2.086c0.624-0.163,1.259-0.291,1.895-0.414c-5.759-11.245-8.016-23.974-12.432-35.791
						c-5.422-14.511-14.389-27.221-24.183-39.089c-5.397-6.54-11.109-12.808-16.853-19.042c-0.065,0.123-0.123,0.25-0.19,0.373
						c-0.702,1.273-2.55,0.028-1.878-1.233c4.206-7.885,4.966-17.217,1.579-25.555C222.145,252.552,223.25,251.981,223.592,252.736z
						"/>
					<path style="fill:#38474F;" d="M233.518,245.37c2.732,2.438,5.468,4.871,8.217,7.289c1.376,1.21,2.758,2.413,4.138,3.619
						c0.69,0.603,1.38,1.205,2.07,1.809c0.708,0.62,1.43,1.413,2.296,1.807c0.41,0.187,0.641,0.201,1.044,0.083
						c0.05-0.024,0.077-0.073,0.117-0.108c-0.047-0.005-0.096-0.056-0.149-0.152c-0.639-0.648-1.406-1.208-2.089-1.81
						c-1.381-1.216-2.748-2.447-4.121-3.671c-2.799-2.493-5.517-5.077-8.249-7.643c-0.923-0.868,0.489-2.533,1.463-1.699
						c3.458,2.958,6.904,5.924,10.282,8.973c0.91,0.821,1.826,1.636,2.729,2.464c0.737,0.676,1.771,1.376,2.352,2.188
						c1.008,1.409-0.143,3.158-1.543,3.703c-1.765,0.687-3.365-0.467-4.619-1.602c-1.684-1.525-3.329-3.097-4.991-4.647
						c-3.397-3.167-6.818-6.307-10.248-9.439C231.384,245.773,232.692,244.633,233.518,245.37z"/>
				</g>
				<g>
					<g>
						<path style="fill:#263238;" d="M304.654,117.432l-0.466,0.581c-1.318,1.641-3.716,1.903-5.357,0.586l0,0
							c-1.641-1.318-1.903-3.716-0.586-5.357l0.466-0.581c1.318-1.641,3.716-1.903,5.358-0.586v0
							C305.709,113.393,305.971,115.791,304.654,117.432z"/>
						<path style="fill:#C99077;" d="M313.028,110.538c-5.432,6.059-4.457,31.625-15.262,45.723
							c-0.608,0.789-1.285,1.474-2.007,2.058c-6.243,4.976-16.188,2.159-18.537-6.115l7.519-12.157l16.934-27.382L313.028,110.538z"
							/>
						<g>
							<path style="fill:#C99077;" d="M301.675,112.663l-0.766,6.885c12.51,2.309,18.893-5.013,23.536-7.116l-10.109-11.18
								L301.675,112.663z"/>
							<path style="fill:#C99077;" d="M319.953,105.986c-0.199,0.223-0.362,0.486-0.467,0.783c-0.028,0.081-0.052,0.158-0.071,0.239
								c-0.215,0.839,0.046,1.713,0.638,2.295c0.224,0.227,0.498,0.409,0.806,0.532l1.943,0.782l2.746,1.098
								c0.394,0.156,0.801,0.199,1.188,0.144c0.546-0.074,1.048-0.337,1.419-0.753c0.199-0.223,0.357-0.49,0.463-0.788
								c0.384-1.089-0.092-2.279-1.087-2.819l-0.005-0.005c-0.053-0.03-0.111-0.055-0.169-0.08l-4.632-2.034
								c-0.044-0.021-0.091-0.037-0.139-0.053C321.629,104.974,320.593,105.268,319.953,105.986z"/>
							<path style="fill:#C99077;" d="M333.341,95.892c-0.129-1.169-1.236-1.973-2.387-1.734l-9.922,2.054l-8.762,5.465l3.944,7.742
								l8.759-9.181l6.992-2.226C332.869,97.724,333.445,96.836,333.341,95.892z"/>
							<polygon style="fill:#263238;" points="312.269,101.677 314.064,100.557 321.827,99.756 323.694,101.577 315.762,109.571 
															"/>
							<path style="fill:#C99077;" d="M327.847,114.828c-0.287,0.78-0.978,1.381-1.861,1.515l-5.01,0.72
								c-1.287,0.183-2.498-0.691-2.725-1.973c-0.063-0.367-0.033-0.732,0.061-1.072c0.014-0.068,0.035-0.123,0.055-0.178
								c0.017-0.046,0.037-0.101,0.063-0.144c0.333-0.764,1.054-1.332,1.942-1.422l5.023-0.559c0.714-0.071,1.403,0.183,1.883,0.662
								c0.069,0.067,0.135,0.144,0.201,0.22c0.233,0.273,0.399,0.616,0.468,0.996C328.027,114.029,327.986,114.451,327.847,114.828z
								"/>
							<path style="fill:#263238;" d="M327.279,112.377c-0.259,0.364-0.627,0.655-1.084,0.821l-4.741,1.747
								c-1.184,0.44-2.87,0.076-3.322-1.563c0.333-0.763,1.353-1.018,2.241-1.108l5.023-0.559
								C326.11,111.644,326.799,111.898,327.279,112.377z"/>
							<path style="fill:#263238;" d="M325.025,110.522c-0.178,0.631-0.62,1.187-1.263,1.484l-3.19,1.399
								c-1.182,0.551-2.587,0.053-3.165-1.107c-0.25-0.518-0.31-1.063-0.195-1.58c0.004-0.05,0.02-0.106,0.033-0.153
								c0.194-0.687,0.675-1.274,1.379-1.573l3.253-1.259c0.553-0.23,1.154-0.234,1.68-0.044c0.547,0.185,1.015,0.581,1.298,1.129
								C325.139,109.365,325.182,109.967,325.025,110.522z"/>
							<path style="fill:#C99077;" d="M318.266,110.856c-0.016,0.048-0.037,0.101-0.048,0.153c-0.02,0.062-0.031,0.124-0.046,0.181
								l0.005,0.004c-0.101,0.452-0.069,0.934,0.118,1.403c0.482,1.204,1.847,1.807,3.071,1.352l4.746-1.742
								c0.23-0.088,0.439-0.204,0.624-0.35c0.347-0.269,0.608-0.632,0.754-1.035c0.199-0.542,0.202-1.144-0.037-1.713
								c-0.14-0.321-0.335-0.592-0.578-0.818c-0.188-0.168-0.403-0.306-0.634-0.406c-0.507-0.23-1.106-0.275-1.673-0.088
								l-4.515,1.503l-0.291,0.096C319.038,109.642,318.515,110.189,318.266,110.856z"/>
							<path style="fill:#263238;" d="M320.087,109.265l-0.291,0.096c-0.724,0.243-1.247,0.79-1.496,1.458
								c-0.016,0.048-0.037,0.101-0.048,0.153c-0.02,0.062-0.03,0.124-0.046,0.181l0.005,0.005c0.738,0.747,1.919,0.939,2.88,0.4
								l1.744-0.978l3.779-2.123c0.105-0.058,0.209-0.125,0.294-0.2c0.284-0.218,0.498-0.489,0.655-0.794l-0.005-0.004
								c-0.053-0.03-0.111-0.055-0.169-0.08l-4.632-2.034c-0.043-0.021-0.091-0.037-0.139-0.053l-3.17,1.68
								C319.233,107.809,319.494,108.683,320.087,109.265z"/>
							<path style="fill:#C99077;" d="M318.724,102.669c-0.278,0.312-0.477,0.695-0.565,1.132c-0.256,1.283,0.558,2.534,1.825,2.828
								l1.591,0.37l3.338,0.764c0.5,0.117,1.004,0.06,1.44-0.129c0.317-0.126,0.597-0.33,0.826-0.588
								c0.278-0.312,0.472-0.699,0.551-1.136c0.219-1.192-0.52-2.358-1.689-2.672l-1.584-0.417l-1.68-0.45l-1.627-0.429
								C320.233,101.695,319.311,102.01,318.724,102.669z"/>
							<path style="fill:#263238;" d="M324.183,106.708c-0.079,0.651-0.431,1.268-1.02,1.66l-2.939,1.871
								c-1.084,0.725-2.549,0.448-3.297-0.609c-0.327-0.473-0.469-1.003-0.434-1.532c-0.004-0.05,0.003-0.108,0.009-0.156
								c0.087-0.709,0.472-1.362,1.122-1.766l3.021-1.743c0.511-0.312,1.104-0.407,1.653-0.301c0.57,0.099,1.092,0.419,1.456,0.917
								C324.117,105.547,324.253,106.135,324.183,106.708z"/>
							<path style="fill:#C99077;" d="M326.689,106.588c-0.13,0.643-0.528,1.231-1.146,1.576l-4.427,2.451
								c-1.137,0.639-2.576,0.249-3.24-0.863c-0.289-0.497-0.39-1.037-0.314-1.561c0-0.05,0.012-0.107,0.021-0.155
								c0.141-0.7,0.576-1.321,1.256-1.673l4.5-2.316c0.534-0.271,1.133-0.32,1.672-0.172c0.56,0.143,1.056,0.502,1.38,1.027
								C326.714,105.425,326.803,106.022,326.689,106.588z"/>
							<g>
								<g>
									<path style="fill:#263238;" d="M304.736,113.054l9.007-9.276l7.865-0.633l-1.563,4.47l-2.985,1.176
										C317.06,108.791,315.032,119.172,304.736,113.054z"/>
									<path style="fill:#263238;" d="M321.608,103.145l2.984,3.47c0.648,0.754,0.572,1.889-0.172,2.549l0,0
										c-0.661,0.587-1.648,0.614-2.34,0.065l-2.035-1.614L321.608,103.145z"/>
								</g>
								<g>
									<path style="fill:#C99077;" d="M301.675,112.663l10.594-10.986l9.282-0.78l-1.827,5.284l-3.519,1.4
										C316.205,107.581,313.854,119.843,301.675,112.663z"/>
									<path style="fill:#263238;" d="M322.776,102.372l-2.072,3.629l0.87,0.998l1.146,1.307c0.06,0.072,0.125,0.139,0.19,0.196
										c0.698,0.623,1.724,0.729,2.542,0.231c0.436-0.26,0.743-0.653,0.901-1.099c0.216-0.581,0.178-1.246-0.155-1.819
										l-1.74-2.993L322.776,102.372z"/>
									<path style="fill:#C99077;" d="M321.551,100.897l3.537,4.084c0.769,0.888,0.683,2.228-0.193,3.01h0
										c-0.778,0.695-1.943,0.731-2.762,0.086l-2.409-1.897L321.551,100.897z"/>
								</g>
							</g>
						</g>
						<polygon style="fill:#263238;" points="301.365,112.46 310.332,120.096 309.202,123.839 298.727,116.156 						"/>
					</g>
					<path style="fill:#263238;" d="M226.374,170.777c0,0,32.653-5.851,52.429-15.347l7.268,23.06l-59.101,25.225L226.374,170.777z"
						/>
					<path style="fill:#263238;" d="M286.072,178.49c17.283-15.261,24.815-47.455,24.815-47.455l-12.731-12.914l-32.711,50.173
						L286.072,178.49z"/>
					<g>
						<defs>
							<path id="SVGID_00000114796686310793994640000007925804729001813675_" d="M298.156,118.12l-26.238,40.245
								c-19.826,7.608-45.544,12.411-45.544,12.411l0.597,32.938l59.101-25.225c17.283-15.261,24.815-47.455,24.815-47.455
								L298.156,118.12z"/>
						</defs>
						<clipPath id="SVGID_00000112618010965791933780000001977769704636961431_">
							<use xlink:href="#SVGID_00000114796686310793994640000007925804729001813675_"  style="overflow:visible;"/>
						</clipPath>
						<g style="clip-path:url(#SVGID_00000112618010965791933780000001977769704636961431_);">
							<path style="fill:#38474F;" d="M273.824,193.335c-1.178-3.296-2.731-6.479-4.048-9.724
								c-1.354-3.336-2.658-6.693-3.912-10.067c-2.477-6.663-4.77-13.4-6.904-20.181c-0.323-1.027-1.902-0.592-1.614,0.45
								c1.921,6.932,4.068,13.791,6.437,20.584c1.155,3.31,2.358,6.604,3.608,9.88c1.282,3.358,2.47,6.843,4.077,10.061
								C272.116,195.634,274.316,194.714,273.824,193.335z"/>
							<path style="fill:#38474F;" d="M284.152,185.957c-0.852-3.142-2.222-6.159-3.517-9.142c-1.358-3.127-2.812-6.212-4.359-9.249
								c-3.061-6.008-6.48-11.827-10.278-17.399c-0.658-0.965-2.212-0.073-1.576,0.927c3.572,5.619,6.873,11.409,9.799,17.392
								c1.454,2.973,2.823,5.988,4.092,9.045c1.283,3.091,2.339,6.28,3.719,9.328C282.585,188.083,284.487,187.192,284.152,185.957z
								"/>
							<path style="fill:#38474F;" d="M301.811,175.006c-0.621-1.407-2.165-2.568-3.229-3.665c-1.188-1.226-2.385-2.442-3.592-3.648
								c-2.414-2.413-4.866-4.788-7.355-7.124c-4.981-4.674-10.119-9.17-15.401-13.502c-0.985-0.808-2.381,0.6-1.392,1.435
								c5.212,4.404,10.303,8.957,15.249,13.658c2.412,2.292,4.789,4.622,7.13,6.988c1.2,1.213,2.391,2.436,3.572,3.668
								c1.118,1.166,2.235,2.827,3.675,3.573C301.409,176.878,302.193,175.872,301.811,175.006z"/>
							<path style="fill:#38474F;" d="M309.057,162.005c-5.006-3.901-10.406-7.278-15.815-10.59
								c-5.474-3.351-11.037-6.52-16.745-9.456c-1.036-0.533-1.879,0.999-0.87,1.589c5.46,3.196,10.892,6.458,16.229,9.858
								c5.335,3.399,10.491,7.067,15.834,10.453C308.778,164.549,310.098,162.817,309.057,162.005z"/>
							<path style="fill:#38474F;" d="M317.743,155.516c-0.865-1.413-2.505-2.252-3.84-3.17c-1.465-1.008-2.921-2.029-4.368-3.063
								c-2.86-2.043-5.682-4.139-8.465-6.285c-5.572-4.295-10.995-8.788-16.278-13.433c-1.208-1.062-2.947,0.705-1.749,1.803
								c5.247,4.808,10.671,9.41,16.264,13.81c2.698,2.123,5.435,4.196,8.202,6.229c1.435,1.054,2.879,2.095,4.333,3.123
								c1.39,0.983,2.915,2.398,4.632,2.69C317.408,157.381,318.291,156.412,317.743,155.516z"/>
							<path style="fill:#38474F;" d="M319.481,144.074c-1.169-1.172-2.625-2.071-3.943-3.069c-1.265-0.958-2.519-1.931-3.762-2.917
								c-2.551-2.024-5.056-4.107-7.511-6.246c-4.91-4.278-9.602-8.796-14.092-13.513c-1.071-1.126-2.734,0.6-1.678,1.73
								c4.504,4.815,9.222,9.429,14.138,13.824c2.426,2.168,4.901,4.281,7.424,6.335c1.293,1.053,2.599,2.091,3.917,3.114
								c1.27,0.986,2.527,2.099,3.958,2.842C319.247,146.855,320.542,145.137,319.481,144.074z"/>
						</g>
					</g>
				</g>
				<path style="fill:#EBEBEB;" d="M167.606,187.989c0,0,2.057,9.294,6.992,22.747c0.144,0.383,0.285,0.777,0.437,1.174
					c5.775,15.523,15.292,36.201,29.741,54.569c2.022,2.58,4.147,5.106,6.356,7.563l48.251-36.058
					c-0.937-1.059-1.856-2.101-2.751-3.15c-9.862-11.592-15.983-22.181-19.702-31.392c-9.181-22.768-10.555-32.666-10.555-32.666
					l-14.508,1.996l-8.502,2.552c0,0-10.973,3.047-11.229,3.132c-1.143,0.354-2.352,0.749-3.611,1.166
					C182.421,181.649,175.043,184.438,167.606,187.989z"/>
				<g>
					<path style="fill:#EBEBEB;" d="M168.651,184.477l10.145,32.061l-13.061,10.503l-3.811,3.364l-3.313-0.698l-20.406-19.184
						c0,0,0.195-0.25,2.877-2.641c0.76-0.689,1.535-1.356,2.32-2.037C159.855,191.764,168.651,184.477,168.651,184.477z"/>
					<path style="fill:#52799C;" d="M165.735,227.041l-3.811,3.364l-3.313-0.698l-20.406-19.184c0,0,0.195-0.25,2.877-2.641
						c0.76-0.689,1.535-1.356,2.32-2.037L165.735,227.041z"/>
				</g>
				<path style="fill:#EBEBEB;" d="M168.651,184.477c5.619-4.607,12.797-4.564,20.136-6.367l0.187,10.233l-19.686,8.391
					L168.651,184.477z"/>
				<polygon style="fill:#EBEBEB;" points="265.316,190.039 232.844,202.921 224.121,171.087 226.374,170.777 258.119,162.463 				
					"/>
				<path style="fill:#52799C;" d="M188.787,178.11c-0.12,0.5-0.212,1.018-0.263,1.512c-0.478,3.991,0.913,7.927,3.621,10.74
					c0.781,0.818,1.687,1.543,2.681,2.132c0.805,0.487,1.687,0.89,2.612,1.204c6.919,2.332,14.422-1.394,16.754-8.314
					c1.509-4.485,0.477-9.212-2.326-12.61l-8.502,2.552L188.787,178.11z"/>
				<g>
					<g>
						<g>
							<path style="fill:#C99077;" d="M212.133,164.408l-0.783,6.34l-0.898,7.293l-0.379,3.827
								c-0.419,4.225-4.054,7.395-8.297,7.234l0,0c-4.275-0.162-7.674-3.646-7.728-7.925l-0.289-22.764L212.133,164.408z"/>
						</g>
						<g>
							<path style="fill:#263238;" d="M211.522,169.46l-0.908,7.268c-7.544,1.516-12.316-6.35-13.346-13.703
								C200.902,162.37,210.196,168.666,211.522,169.46z"/>
						</g>
					</g>
				</g>
				<g>
					<g>
						<g>
							<g>
								<g>
									<path style="fill:#FFFFFF;" d="M225.967,165.279l-2.946,1.165c-3.499,1.383-7.456-0.332-8.839-3.83l-0.91-2.301
										c-1.383-3.499,0.332-7.456,3.83-8.839l2.946-1.165c3.499-1.383,7.456,0.332,8.839,3.83l0.91,2.301
										C231.18,159.939,229.465,163.896,225.967,165.279z"/>
									<path style="fill:#D9DADE;" d="M217.956,155.259l1.205-0.476c1.832-0.724,3.904,0.174,4.629,2.006l0.476,1.205
										c0.724,1.832-0.174,3.904-2.006,4.629l-1.205,0.476c-1.832,0.724-3.904-0.174-4.629-2.006l-0.476-1.205
										C215.226,158.055,216.124,155.983,217.956,155.259z"/>
									<path style="fill:#D9DADE;stroke:#263238;stroke-width:0.25;stroke-miterlimit:10;" d="M223.612,164.934l-1.962,0.775
										c-2.983,1.179-6.357-0.283-7.536-3.266l-0.775-1.962c-1.179-2.983,0.283-6.357,3.266-7.536l1.962-0.775
										c2.983-1.179,6.357,0.283,7.536,3.266l0.775,1.962C228.057,160.381,226.595,163.755,223.612,164.934z"/>
								</g>
								<g>
									<path style="fill:#C99077;" d="M218.618,139.587c-1.634-1.694-3.83-2.639-6.249-3.002
										c-6.169-0.938-13.811,1.917-17.399,5.999c-5.246,5.965-4.864,13.967-1.242,20.371c1.651,2.952,3.997,5.571,6.795,7.485
										c4.9,3.365,11.591,4.827,16.792,1.949c3.756-2.069,6.167-6.123,6.982-10.341
										C225.681,154.922,223.804,144.968,218.618,139.587z"/>
								</g>
								<path style="fill:#263238;" d="M195.102,155.584c6.801,0.671,0.076-10.686,0.076-10.686s14.951,4.793,12.432-5.781
									l-3.64-2.961c0,0-21.542,3.063-12.967,23.807l3.613-0.229L195.102,155.584z"/>
								<g>
									<path style="fill:#263238;" d="M219.261,152.944c0.274,0.866-0.063,1.774-0.752,2.027c-0.689,0.253-1.469-0.244-1.743-1.11
										s0.063-1.774,0.751-2.027C218.207,151.581,218.987,152.078,219.261,152.944z"/>
								</g>
								<g>
									<path style="fill:#263238;" d="M208.587,155.513c0.274,0.866-0.063,1.774-0.752,2.027c-0.689,0.253-1.469-0.244-1.743-1.11
										c-0.274-0.866,0.062-1.774,0.751-2.027C207.532,154.15,208.313,154.647,208.587,155.513z"/>
								</g>
								<g>
									<path style="fill:#263238;" d="M217.146,157.004c-1.135-2.004-2.367-3.932-3.622-5.859
										c-0.122-0.187-0.424-0.042-0.314,0.162c0.892,1.648,1.792,3.271,2.758,4.879c0.467,0.778,1.086,1.6,1.236,2.514
										c0.126,0.765-0.301,1.408-0.808,1.924c-0.132,0.134-0.063,0.391,0.144,0.392c0.714,0.005,1.242-0.685,1.342-1.343
										C218.026,158.728,217.599,157.803,217.146,157.004z"/>
								</g>
								<path style="fill:#263238;" d="M196.764,163.718l-4.283-4.464l0.504-0.694c0.634-0.992,1.343-1.989,2.118-2.977
									C197.412,159.184,196.764,163.718,196.764,163.718z"/>
								<path style="fill:#263238;" d="M207.61,139.117c9.308,4.405,11.008,0.47,11.008,0.47l3.211,4.664
									c6.366-5.297-1.109-21.832-11.621-11.873c-2.499-9.118-17.497-2.645-18.932,9.04c-9.791-0.759-16.324,13.77,0.839,20.806
									c0,0-5.122-18.587,4.635-22.177C200.972,138.495,207.61,139.117,207.61,139.117z"/>
								<g>
									<path style="fill:#C99077;" d="M190.597,157.647c-1.519-0.439-3.357-0.123-4.316,1.135
										c-0.798,1.048-0.831,2.499-0.563,3.788c0.345,1.663,1.159,3.257,2.442,4.371c1.283,1.114,3.057,1.701,4.726,1.386
										c1.669-0.315,3.164-1.6,3.556-3.253C197.193,161.902,193.327,158.436,190.597,157.647z"/>
								</g>
								<g>
									<path style="fill:#263238;" d="M194.33,164.092c-0.681-0.735-1.557-1.318-2.523-1.601c-0.443-0.129-0.889-0.225-1.35-0.253
										c-0.461-0.028-0.927,0.036-1.388,0.054c-0.3,0.011-0.343,0.51-0.032,0.538c0.206,0.018,0.396,0.045,0.592,0.115
										c0.196,0.069,0.385,0.16,0.576,0.243c0.195,0.085,0.388,0.175,0.58,0.268c0.092,0.045,0.185,0.091,0.274,0.142
										c0.087,0.05,0.221,0.104,0.288,0.179c-0.021-0.014-0.042-0.028-0.063-0.042c0.03,0.021,0.06,0.041,0.09,0.062
										c0.077,0.053,0.153,0.105,0.232,0.155c0.048,0.03,0.096,0.06,0.144,0.09c0.007,0.005,0.004,0.002,0.01,0.006
										c0.186,0.095,0.362,0.265,0.519,0.399c0.329,0.281,0.65,0.571,0.936,0.896c0.133,0.152,0.425,0.224,0.616,0.21
										c0.201-0.015,0.438-0.12,0.567-0.279C194.708,164.894,194.65,164.437,194.33,164.092z"/>
								</g>
							</g>
						</g>
						<g>
							<path style="fill:#263238;" d="M220.505,143.262c2.922,2.84-6.262,4.343-6.15,1.629
								C214.439,142.856,219.282,142.073,220.505,143.262z"/>
						</g>
						<g>
							<path style="fill:#263238;" d="M199.873,150.535c-0.422-1.788,3.799-3.238,5.055-2.891
								C208.449,148.618,200.687,153.982,199.873,150.535z"/>
						</g>
					</g>
					<g>
						<path style="fill:#FFFFFF;" d="M207.589,162.264c0.219-0.601,5.617,0.019,6.096,0.757c0.304,0.469-1.107,2.556-3.406,2.232
							C208.38,164.986,207.334,162.963,207.589,162.264z"/>
					</g>
					<g>
						<path style="fill:#FFFFFF;" d="M200.938,161.128l25.188-6.892c2.143-0.587,3.405-2.799,2.819-4.942l-2.206-8.061
							c-0.586-2.143-2.799-3.405-4.942-2.819l-25.188,6.892c-2.143,0.586-3.405,2.799-2.819,4.942l2.206,8.061
							C196.582,160.453,198.794,161.715,200.938,161.128z"/>
						<path style="fill:none;stroke:#263238;stroke-width:0.25;stroke-miterlimit:10;" d="M206.584,159.583l19.542-5.347
							c2.143-0.587,3.405-2.799,2.819-4.942l-2.206-8.061c-0.586-2.143-2.799-3.405-4.942-2.819l-19.542,5.347
							c-2.143,0.587-3.405,2.799-2.819,4.942l2.206,8.061C202.228,158.908,204.441,160.169,206.584,159.583z"/>
						<path style="fill:#DBDBDB;" d="M207.115,157.833l18.073-4.945c1.739-0.476,2.762-2.271,2.287-4.009l-1.789-6.539
							c-0.476-1.739-2.271-2.762-4.009-2.287l-18.073,4.945c-1.739,0.476-2.762,2.271-2.287,4.009l1.789,6.539
							C203.581,157.285,205.377,158.308,207.115,157.833z"/>
						<g>
							
								<line style="fill:none;stroke:#263238;stroke-width:0.25;stroke-miterlimit:10;" x1="223.545" y1="149.321" x2="208.198" y2="146.005"/>
							
								<line style="fill:none;stroke:#263238;stroke-width:0.25;stroke-miterlimit:10;" x1="216.951" y1="150.582" x2="210.119" y2="149.106"/>
						</g>
					</g>
					<g>
						<path style="fill:#FFFFFF;" d="M195.953,167.517l-2.946,1.165c-3.499,1.383-7.456-0.332-8.839-3.83l-0.91-2.301
							c-1.383-3.499,0.332-7.456,3.83-8.839l2.946-1.165c3.498-1.383,7.456,0.332,8.839,3.83l0.91,2.301
							C201.167,162.177,199.452,166.134,195.953,167.517z"/>
						<path style="fill:#DBDBDB;" d="M187.943,157.497l1.205-0.476c1.832-0.724,3.904,0.174,4.629,2.006l0.476,1.205
							c0.724,1.832-0.174,3.904-2.006,4.629l-1.205,0.476c-1.832,0.724-3.904-0.174-4.629-2.006l-0.476-1.205
							C185.213,160.293,186.111,158.221,187.943,157.497z"/>
						<path style="fill:none;stroke:#263238;stroke-width:0.25;stroke-miterlimit:10;" d="M193.599,167.172l-1.962,0.776
							c-2.983,1.179-6.357-0.283-7.536-3.266l-0.775-1.962c-1.179-2.983,0.283-6.357,3.266-7.536l1.962-0.775
							c2.983-1.179,6.357,0.283,7.536,3.266l0.775,1.962C198.044,162.619,196.581,165.993,193.599,167.172z"/>
					</g>
				</g>
				<path style="fill:#DBDBDB;" d="M220.425,178.438c3.297,3.862,6.348,7.92,9.07,12.208c1.364,2.148,2.658,4.345,3.872,6.58
					c0.607,1.117,1.208,2.237,1.785,3.37c0.582,1.14,1.283,2.33,1.379,3.631c0.066,0.89-0.99,1.622-1.677,0.833
					c-0.819-0.939-1.198-2.131-1.657-3.269c-0.451-1.118-0.917-2.231-1.421-3.326c-1.063-2.309-2.216-4.571-3.468-6.783
					c-2.511-4.434-5.355-8.679-8.54-12.657C219.416,178.585,220.055,178.005,220.425,178.438z"/>
				<path style="fill:#DBDBDB;" d="M197.541,225.801c3.07-0.518,6.135-0.918,9.176-1.615c3.163-0.724,6.291-1.61,9.355-2.679
					c5.915-2.063,11.678-4.735,17.021-8.01c0.469-0.287,0.833,0.471,0.378,0.761c-5.43,3.462-11.126,6.381-17.174,8.608
					c-5.866,2.16-12.185,4.024-18.433,4.603C196.799,227.569,196.44,225.987,197.541,225.801z"/>
				<path style="fill:#DBDBDB;" d="M214.908,238.045c2.216-1.407,4.514-2.594,6.644-4.156c2.138-1.568,4.169-3.276,6.065-5.129
					c3.787-3.7,7.068-7.919,9.729-12.497c0.396-0.682,1.381-0.012,1.015,0.666c-2.591,4.798-5.787,9.213-9.564,13.148
					c-1.88,1.959-3.882,3.808-6,5.507c-2.092,1.678-4.369,3.503-6.762,4.73C214.554,241.073,213.56,238.9,214.908,238.045z"/>
				<path style="fill:#DBDBDB;" d="M176.031,209.577c5.745-5.678,9.666-12.545,10.179-20.74c0.035-0.557,0.879-0.497,0.863,0.059
					c-0.188,6.421-2.072,13.145-5.702,18.587c0.133,0.032,0.251,0.124,0.289,0.297c3.809,17.686,12.251,34.112,23.972,48.047
					c3.32,3.947,6.905,7.615,10.673,11.146c1.032,0.967-0.586,2.333-1.615,1.423c-13.824-12.234-23.766-28.375-29.807-45.557
					c-1.684-4.79-2.977-9.704-3.972-14.671c-0.894,1.261-1.885,2.448-2.977,3.536C176.631,213.001,174.729,210.864,176.031,209.577z
					"/>
				<path style="fill:#52799C;" d="M204.775,266.48c2.022,2.576,4.143,5.103,6.359,7.56l48.252-36.057
					c-0.946-1.056-1.864-2.103-2.752-3.149L204.775,266.48z"/>
				<polygon style="fill:#52799C;" points="265.316,190.039 257.782,193.028 252.404,163.709 258.119,162.463 				"/>
				<g>
					<path style="fill:#385878;" d="M216.843,221.652c-0.434,1.638-1.115,3.207-2.013,4.648c-1.638,2.664-4.036,4.914-7.066,6.394
						c-7.381,3.622-16.085,1.48-21.019-4.667c-0.799-0.977-1.49-2.062-2.062-3.237c-2.072-4.233-2.25-8.911-0.859-13.055
						c1.411-4.233,4.441-7.904,8.763-10.026c8.555-4.194,18.887-0.651,23.081,7.904
						C217.574,213.511,217.889,217.764,216.843,221.652z"/>
					<path style="fill:#52799C;" d="M216.843,221.652c-3.513,2.289-8.042,3.661-12.967,3.661c-10.233,0-18.7-5.901-20.052-13.578
						c1.411-4.233,4.441-7.904,8.763-10.026c8.555-4.194,18.887-0.651,23.081,7.904
						C217.574,213.511,217.889,217.764,216.843,221.652z"/>
					<g>
						<path style="fill:none;stroke:#DBDBDB;stroke-width:0.5;stroke-miterlimit:10;" d="M183.836,222.707l2.111-1.035
							c0.779-0.382,1.719-0.06,2.101,0.719l2.889,5.897c0.382,0.779,1.322,1.101,2.101,0.719l4.905-2.403
							c0.779-0.382,1.101-1.322,0.719-2.101l-6.539-13.346c-0.382-0.779-0.06-1.719,0.719-2.101l1.878-0.92
							c0.779-0.382,1.101-1.322,0.719-2.101l-2.182-4.453"/>
						<path style="fill:none;stroke:#DBDBDB;stroke-width:0.5;stroke-miterlimit:10;" d="M209.372,202.601l-2.56,1.254
							c-0.779,0.382-1.101,1.322-0.719,2.101l2.607,5.321c0.382,0.779,0.06,1.719-0.719,2.101l-4.388,2.15
							c-0.779,0.382-1.101,1.322-0.719,2.101l3.189,6.509c0.382,0.779,0.059,1.719-0.719,2.101l-1.171,0.573
							c-0.779,0.382-1.101,1.322-0.719,2.101l2.024,4.131"/>
						<path style="fill:none;stroke:#DBDBDB;stroke-width:0.5;stroke-miterlimit:10;" d="M183.382,213.266l1.322-0.648
							c0.779-0.382,1.719-0.06,2.101,0.719l0.963,1.966c0.382,0.779,1.322,1.101,2.101,0.719l11.79-5.776
							c0.779-0.382,1.101-1.322,0.719-2.101l-3.927-8.014"/>
						<path style="fill:#52799C;stroke:#DBDBDB;stroke-width:0.5;stroke-miterlimit:10;" d="M204.226,208.987
							c0.313,0.64,0.049,1.412-0.591,1.726c-0.64,0.313-1.413,0.049-1.726-0.591c-0.313-0.64-0.049-1.413,0.591-1.726
							C203.14,208.083,203.913,208.348,204.226,208.987z"/>
						<path style="fill:#52799C;stroke:#DBDBDB;stroke-width:0.5;stroke-miterlimit:10;" d="M197.37,207.045
							c0.313,0.64,0.049,1.413-0.591,1.726c-0.64,0.313-1.413,0.049-1.726-0.591c-0.314-0.64-0.049-1.413,0.591-1.726
							C196.284,206.14,197.056,206.405,197.37,207.045z"/>
						<path style="fill:#52799C;stroke:#DBDBDB;stroke-width:0.5;stroke-miterlimit:10;" d="M194.876,213.568
							c0.313,0.64,0.049,1.413-0.591,1.726c-0.64,0.313-1.413,0.049-1.726-0.591c-0.313-0.64-0.049-1.413,0.591-1.726
							C193.79,212.664,194.563,212.928,194.876,213.568z"/>
						<path style="fill:#52799C;stroke:#DBDBDB;stroke-width:0.5;stroke-miterlimit:10;" d="M187.216,211.478
							c0.314,0.64,0.049,1.413-0.591,1.726c-0.64,0.314-1.413,0.049-1.726-0.591c-0.314-0.64-0.049-1.413,0.591-1.726
							C186.13,210.574,186.902,210.838,187.216,211.478z"/>
						<path style="fill:#385878;stroke:#DBDBDB;stroke-width:0.5;stroke-miterlimit:10;" d="M192.512,228.969
							c0.313,0.64,0.049,1.413-0.591,1.726c-0.64,0.314-1.412,0.049-1.726-0.591c-0.313-0.64-0.049-1.413,0.591-1.726
							C191.426,228.064,192.199,228.329,192.512,228.969z"/>
						<path style="fill:#385878;stroke:#DBDBDB;stroke-width:0.5;stroke-miterlimit:10;" d="M200.503,225.053
							c0.314,0.64,0.049,1.413-0.591,1.726c-0.64,0.313-1.413,0.049-1.726-0.591c-0.314-0.64-0.049-1.413,0.591-1.726
							C199.417,224.149,200.19,224.413,200.503,225.053z"/>
						<path style="fill:#52799C;stroke:#DBDBDB;stroke-width:0.5;stroke-miterlimit:10;" d="M203.542,215.552
							c0.313,0.64,0.049,1.413-0.591,1.726c-0.64,0.314-1.413,0.049-1.726-0.591c-0.313-0.64-0.049-1.412,0.591-1.726
							C202.456,214.648,203.229,214.912,203.542,215.552z"/>
						<path style="fill:#385878;stroke:#DBDBDB;stroke-width:0.5;stroke-miterlimit:10;" d="M207.489,224.767
							c0.313,0.64,0.049,1.413-0.591,1.726c-0.64,0.313-1.413,0.049-1.726-0.591c-0.313-0.64-0.049-1.413,0.591-1.726
							C206.403,223.863,207.176,224.127,207.489,224.767z"/>
						<path style="fill:#52799C;stroke:#DBDBDB;stroke-width:0.5;stroke-miterlimit:10;" d="M210.619,212.084
							c0.313,0.64,0.049,1.413-0.591,1.726c-0.64,0.313-1.413,0.049-1.726-0.591c-0.313-0.64-0.049-1.413,0.591-1.726
							C209.533,211.18,210.306,211.445,210.619,212.084z"/>
						<path style="fill:none;stroke:#DBDBDB;stroke-width:0.5;stroke-miterlimit:10;" d="M213.205,206.024l-0.324,0.159
							c-1.104,0.541-1.56,1.873-1.019,2.977l2.272,4.637c0.541,1.103,0.084,2.436-1.019,2.977l-2.094,1.026
							c-1.103,0.541-1.56,1.873-1.019,2.977l3.269,6.673"/>
						<path style="fill:#52799C;stroke:#DBDBDB;stroke-width:0.5;stroke-miterlimit:10;" d="M210.9,218.523
							c0.313,0.64,0.049,1.413-0.591,1.726c-0.64,0.314-1.413,0.049-1.726-0.591c-0.313-0.64-0.049-1.413,0.591-1.726
							C209.814,217.618,210.587,217.883,210.9,218.523z"/>
					</g>
					<path style="fill:#263238;" d="M224.409,210.146c-0.574-0.316-1.145-0.498-1.713-0.65c-1.13-0.295-2.253-0.426-3.369-0.499
						c-1.342-0.087-2.669-0.097-3.999-0.053c0.116,0.216,0.232,0.431,0.344,0.66c0.087,0.178,0.174,0.355,0.248,0.528
						c1.107,0.034,2.197,0.098,3.282,0.216c1.056,0.122,2.116,0.295,3.081,0.598c0.483,0.151,0.949,0.332,1.322,0.558
						c0.377,0.235,0.581,0.522,0.613,0.695c0.007,0.185-0.097,0.488-0.373,0.822c-0.276,0.335-0.658,0.647-1.052,0.935
						c-0.809,0.596-1.731,1.089-2.682,1.545c-0.879,0.41-1.779,0.777-2.691,1.119c-1.085,0.395-2.187,0.757-3.301,1.093
						c-2.043,0.645-4.132,1.175-6.22,1.664c-2.092,0.501-4.193,0.964-6.306,1.381c-4.222,0.842-8.496,1.489-12.768,1.8
						c-1.664,0.113-3.336,0.188-4.991,0.149c-0.455-0.008-0.913-0.024-1.368-0.053c-1.048-0.063-2.083-0.185-3.028-0.424
						c-0.475-0.113-0.928-0.269-1.281-0.452c-0.369-0.197-0.527-0.413-0.56-0.501c-0.029-0.08,0.016-0.375,0.267-0.718
						c0.234-0.335,0.591-0.677,0.972-0.99c0.767-0.638,1.673-1.187,2.595-1.701c0.491-0.261,0.994-0.518,1.501-0.767
						c-0.004-0.585,0.031-1.179,0.098-1.768c-0.802,0.309-1.588,0.652-2.37,1.025c-1.014,0.497-2.012,1.028-2.974,1.74
						c-0.479,0.35-0.949,0.738-1.379,1.273c-0.404,0.502-0.869,1.286-0.718,2.302c0.207,1,0.926,1.591,1.483,1.936
						c0.595,0.358,1.183,0.574,1.754,0.755c1.159,0.355,2.295,0.532,3.422,0.672c0.896,0.096,1.78,0.166,2.668,0.203
						c1.351,0.061,2.703,0.06,4.055,0.016c4.443-0.154,8.848-0.729,13.195-1.527c4.348-0.82,8.627-2.036,12.779-3.619
						c0.803-0.309,1.597-0.635,2.379-0.987c1.263-0.546,2.498-1.15,3.711-1.818c0.99-0.548,1.971-1.133,2.891-1.888
						c0.454-0.38,0.903-0.788,1.299-1.329c0.379-0.511,0.777-1.282,0.611-2.197C225.623,210.977,224.958,210.454,224.409,210.146z"
						/>
				</g>
				<g>
					<g>
						<polygon style="fill:#C99077;" points="189.958,244.354 182.226,246.798 181.993,236.586 190.176,236.449 						"/>
						<polygon style="fill:#C99077;" points="189.958,244.354 213.211,235.767 187.243,231.259 183.542,243.716 						"/>
						<path style="fill:#C99077;" d="M189.997,233.734l-3.465-1.405c-1.024-0.415-1.38-1.685-0.722-2.572l0.203-0.274
							c1.245-1.68,3.665-1.924,5.221-0.528l0,0c1.044,0.937,1.438,2.4,1.006,3.734l0,0
							C191.938,233.622,190.906,234.103,189.997,233.734z"/>
						<path style="fill:#C99077;" d="M196.933,234.511l16.275,1.259l0.301-0.413c1.181-1.625,3.014-2.647,5.014-2.792
							c0.322-0.027,0.581-0.258,0.649-0.559c0.011-0.047,0.014-0.097,0.016-0.146c0.031-1.313-0.87-2.43-2.102-2.708
							c-0.205-0.047-0.418-0.061-0.642-0.062l-1.008,0.087l-0.102,0.01c-1.737,0.155-3.282,1.15-4.139,2.666l-13.815,2.577
							L196.933,234.511z"/>
						<path style="fill:#C99077;" d="M209.024,234.82l0.299-0.412c1.179-1.623,3.012-2.644,5.012-2.792l0,0
							c0.37-0.027,0.659-0.331,0.668-0.702l0,0c0.038-1.535-1.206-2.794-2.742-2.775l-1.11,0.1
							c-1.735,0.157-3.283,1.154-4.145,2.668l0,0l-14.263,2.656L209.024,234.82z"/>
					</g>
					<path style="fill:#263238;" d="M215.655,230.64c0.036-0.275-0.383-0.358-0.47-0.099c-0.183,0.543-0.915,0.968-1.423,1.173
						c-0.581,0.234-1.216,0.31-1.813,0.497c-1.127,0.352-1.936,1.137-2.829,1.868c-1.84,1.507-4.219,1.804-6.488,2.184
						c-0.294,0.049-0.286,0.544,0.027,0.536c1.24-0.034,2.489-0.103,3.7-0.393c1.249-0.299,2.372-0.823,3.346-1.657
						c0.501-0.429,0.967-0.912,1.518-1.279c0.588-0.392,1.257-0.525,1.933-0.683c0.61-0.142,1.201-0.316,1.722-0.674
						C215.386,231.763,215.578,231.231,215.655,230.64z"/>
				</g>
				<path style="fill:#263238;" d="M184.378,235.169l1.644,13.309c0,0-38.576,5.833-52.414-7.999
					c-9.744-9.74-0.62-22.585,5.982-28.687l19.022,17.911L184.378,235.169z"/>
				<g>
					<defs>
						<path id="SVGID_00000180344388546353338560000001527651659876486307_" d="M184.378,235.169l1.644,13.309
							c0,0-38.576,5.833-52.414-7.999c-9.744-9.74-0.62-22.585,5.982-28.687l19.022,17.911L184.378,235.169z"/>
					</defs>
					<clipPath id="SVGID_00000025442489193087432050000004182750398879985807_">
						<use xlink:href="#SVGID_00000180344388546353338560000001527651659876486307_"  style="overflow:visible;"/>
					</clipPath>
					<g style="clip-path:url(#SVGID_00000025442489193087432050000004182750398879985807_);">
						<path style="fill:#38474F;" d="M180.861,250.694c-0.101-2.388-0.182-4.777-0.271-7.166c-0.178-4.775-0.388-9.562-0.466-14.339
							c-0.017-1.038-1.609-0.868-1.599,0.157c0.048,4.793-0.036,9.599-0.087,14.393c-0.026,2.4-0.044,4.8-0.081,7.2
							c-0.034,2.23-0.426,4.786,0.155,6.951c0.357,1.331,2.169,0.858,2.434-0.243C181.462,255.499,180.953,252.891,180.861,250.694z
							"/>
						<path style="fill:#38474F;" d="M172.351,229.322c0.094-1.124-1.572-1.422-1.75-0.28c-1.33,8.537-2.531,17.102-3.607,25.677
							c-0.228,1.817,2.601,2.269,2.807,0.449C170.778,246.567,171.63,237.946,172.351,229.322z"/>
						<path style="fill:#38474F;" d="M164.551,228.113c-4.167,9.043-6.481,18.868-9.932,28.191
							c-0.345,0.931,1.067,1.564,1.419,0.625c3.524-9.4,8.208-18.422,11.007-28.081
							C167.469,227.386,165.154,226.804,164.551,228.113z"/>
						<path style="fill:#38474F;" d="M162.052,225.056c-2.159,1.629-4.029,3.668-5.952,5.563c-1.971,1.943-3.942,3.887-5.913,5.83
							c-3.937,3.882-7.867,7.771-11.663,11.791c-0.72,0.762,0.489,2.057,1.288,1.351c4.141-3.661,8.156-7.46,12.163-11.266
							l6.02-5.718c1.958-1.86,4.062-3.658,5.762-5.763C164.631,225.762,163.188,224.199,162.052,225.056z"/>
						<path style="fill:#38474F;" d="M157.415,225.094c-11.577,0.095-23.119,3.099-33.08,9.052
							c-1.812,1.083,0.126,3.755,1.928,2.662c9.527-5.781,20.156-9.42,31.3-10.206C158.551,226.531,158.373,225.086,157.415,225.094
							z"/>
						<path style="fill:#38474F;" d="M154.556,217.723c-0.942-0.51-2.064-0.338-3.111-0.358c-0.997-0.019-1.994-0.038-2.992-0.057
							c-2.243-0.043-4.487-0.089-6.731-0.124c-4.401-0.069-8.796-0.149-13.197-0.085c-0.803,0.012-0.845,1.334-0.043,1.41
							c4.385,0.412,8.775,0.679,13.17,0.957c2.157,0.137,4.315,0.263,6.473,0.393c1.079,0.065,2.158,0.129,3.237,0.194
							c1.051,0.063,2.145,0.313,3.129-0.124C155.48,219.49,155.48,218.223,154.556,217.723z"/>
					</g>
				</g>
			</g>
			<g>
				<g>
					<g>
						<path style="opacity:0.7;fill:#FFFFFF;" d="M153.754,309.808v56.662c0,2.994,2.139,5.556,5.085,6.088
							c21.22,3.836,45.368,6.001,70.998,6.001c14.018,0,27.587-0.65,40.481-1.862c3.185-0.299,5.624-2.96,5.624-6.159v-56.816
							c0-3.631-3.109-6.479-6.725-6.149c-12.565,1.146-25.76,1.76-39.38,1.76c-24.757,0-48.132-2.02-68.819-5.607
							C157.226,303.068,153.754,305.961,153.754,309.808z"/>
						<path style="fill:none;stroke:#263238;stroke-width:0.25;stroke-miterlimit:10;" d="M153.754,309.808v56.662
							c0,2.994,2.139,5.556,5.085,6.088c21.22,3.836,45.368,6.001,70.998,6.001c14.018,0,27.587-0.65,40.481-1.862
							c3.185-0.299,5.624-2.96,5.624-6.159v-56.816c0-3.631-3.109-6.479-6.725-6.149c-12.565,1.146-25.76,1.76-39.38,1.76
							c-24.757,0-48.132-2.02-68.819-5.607C157.226,303.068,153.754,305.961,153.754,309.808z"/>
					</g>
				</g>
				<g>
					<path style="opacity:0.7;fill:none;stroke:#CA775D;stroke-miterlimit:10;" d="M159.44,362.13
						c20.326,4.022,43.879,6.315,69.002,6.315c14.577,0,28.618-0.774,41.814-2.204"/>
					<path style="fill:none;stroke:#EBEBEB;stroke-width:2;stroke-linecap:round;stroke-linejoin:round;stroke-miterlimit:10;" d="
						M238.881,368.312c10.855-0.278,21.358-0.986,31.375-2.071"/>
					<path style="fill:none;stroke:#CA775D;stroke-width:2;stroke-linecap:round;stroke-linejoin:round;stroke-miterlimit:10;" d="
						M159.44,362.13c20.326,4.022,43.879,6.315,69.002,6.315c3.512,0,6.994-0.045,10.439-0.133"/>
				</g>
				<path style="opacity:0.8;fill:#52799C;" d="M204.011,328.537l18.78,10.232c1.842,1.004,1.842,3.648,0,4.652l-18.78,10.233
					c-1.765,0.962-3.916-0.316-3.916-2.326v-20.465C200.094,328.853,202.245,327.575,204.011,328.537z"/>
				<g>
					<path style="fill:#CA775D;" d="M235.531,368.446c0,1.85,1.5,3.35,3.35,3.35c1.85,0,3.35-1.5,3.35-3.35s-1.5-3.35-3.35-3.35
						C237.031,365.096,235.531,366.596,235.531,368.446z"/>
					<path style="fill:#FFFFFD;" d="M237.231,368.446c0,0.911,0.739,1.65,1.65,1.65c0.911,0,1.65-0.739,1.65-1.65
						c0-0.911-0.739-1.65-1.65-1.65C237.97,366.795,237.231,367.534,237.231,368.446z"/>
				</g>
			</g>
			<g style="opacity:0.8;">
				<g>
					<g>
						<g>
							<rect x="324.704" y="184.829" style="fill:#52799C;" width="3.504" height="1.974"/>
						</g>
						<g>
							<rect x="330.325" y="184.829" style="fill:#52799C;" width="12.654" height="1.974"/>
						</g>
					</g>
					<g>
						<g>
							<rect x="310.887" y="195.318" style="fill:#52799C;" width="5.296" height="1.974"/>
						</g>
						<g>
							<rect x="318.301" y="195.318" style="fill:#52799C;" width="8.122" height="1.974"/>
						</g>
					</g>
				</g>
				<path style="fill:#52799C;" d="M401.631,196.962l-78.443,0.33c-0.853-2.301,2.095-4.405,4.541-4.589
					c2.447-0.184,5.136,0.41,7.2-0.917c2.952-1.898,2.626-6.225,3.866-9.509c1.18-3.126,4.128-5.513,7.43-6.018
					c3.303-0.504,6.829,0.895,8.888,3.526c2.706,3.459,3.276,8.978,7.37,10.568c4.463,1.734,9.665-2.821,14.04-0.874
					c2.551,1.135,3.879,4.163,6.456,5.239c2.077,0.867,4.459,0.255,6.565-0.539c2.107-0.794,4.247-1.78,6.493-1.636
					C398.284,192.688,401.852,194.722,401.631,196.962z"/>
			</g>
			<g>
				<g>
					<path style="fill:#EBEBEB;" d="M137.511,117.536v73.852c-33.719,6.865-56.324,19.513-56.324,33.965v-73.86
						C81.187,137.041,103.792,124.393,137.511,117.536z"/>
				</g>
				<g>
					<path style="fill:#CA775D;" d="M170.928,167.103l-63.665-0.325c-1.103-1.746,0.87-4.72,2.869-5.237
						c1.999-0.517,4.081,0.236,6.021,0.944c1.94,0.708,4.071,1.385,6.028,0.725c2.5-0.843,3.803-3.516,4.904-5.914
						c1.497-3.26,3.241-6.63,6.265-8.561c3.024-1.93,7.687-1.74,9.576,1.31c1.103,1.781,1.021,4.014,1.265,6.094
						c0.244,2.081,1.109,4.407,3.093,5.08c2.407,0.815,4.719-1.226,7.006-2.333C159.617,156.307,169.473,161.368,170.928,167.103z"
						/>
					<g>
						<g>
							<g>
								<rect x="98.079" y="164.805" style="fill:#CA775D;" width="3.179" height="1.974"/>
							</g>
							<g>
								<rect x="103.376" y="164.805" style="fill:#CA775D;" width="23.051" height="1.974"/>
							</g>
						</g>
						<g>
							<g>
								<rect x="117.147" y="156.192" style="fill:#CA775D;" width="3.179" height="1.974"/>
							</g>
							<g>
								<rect x="122.444" y="156.192" style="fill:#CA775D;" width="10.24" height="1.974"/>
							</g>
						</g>
					</g>
				</g>
				<path style="opacity:0.7;fill:#DBDBDB;" d="M101.28,173.987v73.86c-12.672-6.34-20.095-14.026-20.095-22.31v-73.86
					C81.185,159.954,88.608,167.639,101.28,173.987z"/>
			</g>
		</g>
	</g>
</g>
</svg>
